<svg xmlns="http://www.w3.org/2000/svg" xmlns:xlink="http://www.w3.org/1999/xlink" width="42.274" height="42.274" viewBox="0 0 42.274 42.274"><defs><style>.a{fill:#2196f3;}.b{fill:#fafafa;}.c{filter:url(#a);}</style><filter id="a" x="0" y="0" width="42.274" height="42.274" filterUnits="userSpaceOnUse"><feOffset dy="3" input="SourceAlpha"/><feGaussianBlur stdDeviation="3" result="b"/><feFlood flood-color="#2196f3" flood-opacity="0.161"/><feComposite operator="in" in2="b"/><feComposite in="SourceGraphic"/></filter></defs><g transform="translate(14.409 6) rotate(16)"><g class="c" transform="matrix(0.96, -0.28, 0.28, 0.96, -15.5, -1.8)"><path class="a" d="M2.044,0H17.58a2.044,2.044,0,0,1,2.044,2.044V17.58a2.044,2.044,0,0,1-2.044,2.044H2.044A2.044,2.044,0,0,1,0,17.58V2.044A2.044,2.044,0,0,1,2.044,0Z" transform="translate(14.41 6) rotate(16)"/></g><path class="b" d="M6.95,3.271H8.586a.409.409,0,0,0,.409-.409V.409A.409.409,0,0,0,8.586,0H6.95a4.5,4.5,0,0,0-4.5,4.5V6.542H.409A.409.409,0,0,0,0,6.95V9.4a.409.409,0,0,0,.409.409H2.453v7.359H5.724V9.812H7.768a.409.409,0,0,0,.388-.28L8.973,7.08a.409.409,0,0,0-.388-.538H5.724V4.5A1.227,1.227,0,0,1,6.95,3.271Z" transform="translate(8.177 2.453)"/></g></svg>