<svg xmlns="http://www.w3.org/2000/svg" xmlns:xlink="http://www.w3.org/1999/xlink" width="39.815" height="39.815" viewBox="0 0 39.815 39.815"><defs><style>.a{fill:#fcbc03;}.b{filter:url(#a);}</style><filter id="a" x="0" y="0" width="39.815" height="39.815" filterUnits="userSpaceOnUse"><feOffset dy="3" input="SourceAlpha"/><feGaussianBlur stdDeviation="3" result="b"/><feFlood flood-color="#fcbc03" flood-opacity="0.161"/><feComposite operator="in" in2="b"/><feComposite in="SourceGraphic"/></filter></defs><g transform="matrix(0.966, -0.259, 0.259, 0.966, 9, 10.61)"><g transform="translate(0)"><g class="b" transform="matrix(0.97, 0.26, -0.26, 0.97, -5.95, -12.58)"><path class="a" d="M8.906,7.125v3.562h5.039A5.344,5.344,0,1,1,8.906,3.562a5.264,5.264,0,0,1,3.461,1.29l2.34-2.686A8.826,8.826,0,0,0,8.906,0a8.906,8.906,0,1,0,8.906,8.906V7.125Z" transform="matrix(0.97, -0.26, 0.26, 0.97, 9, 10.61)"/></g></g></g></svg>