<svg xmlns="http://www.w3.org/2000/svg" xmlns:xlink="http://www.w3.org/1999/xlink" width="23.253" height="23.253" viewBox="0 0 23.253 23.253"><defs><style>.a{fill:url(#a);}.b{fill:url(#b);}.c{fill:#bc2f9e;}</style><linearGradient id="a" x1="0.097" y1="0.92" x2="0.246" y2="-0.115" gradientUnits="objectBoundingBox"><stop offset="0" stop-color="#fdd77a"/><stop offset="0.189" stop-color="#f66f2e"/><stop offset="0.424" stop-color="#d12f83"/><stop offset="0.652" stop-color="#a335b4"/><stop offset="1" stop-color="#505dce"/></linearGradient><linearGradient id="b" x1="-0.189" y1="1.692" x2="1.465" y2="-0.796" gradientUnits="objectBoundingBox"><stop offset="0" stop-color="#fdd77a"/><stop offset="0.3" stop-color="#f66f2e"/><stop offset="0.515" stop-color="#d12f83"/><stop offset="0.782" stop-color="#a335b4"/><stop offset="1" stop-color="#505dce"/></linearGradient></defs><g transform="translate(0 7.395) rotate(-25)"><path class="a" d="M569.863,244.808h-7.072a5.218,5.218,0,0,0-5.213,5.213v7.072a5.219,5.219,0,0,0,5.213,5.213h7.072a5.22,5.22,0,0,0,5.213-5.213v-7.072A5.219,5.219,0,0,0,569.863,244.808Zm3.453,12.285a3.453,3.453,0,0,1-3.453,3.453h-7.072a3.453,3.453,0,0,1-3.453-3.453v-7.072a3.452,3.452,0,0,1,3.453-3.452h7.072a3.452,3.452,0,0,1,3.453,3.452Z" transform="translate(-557.579 -244.808)"/><path class="b" d="M568.131,250.835a4.525,4.525,0,1,0,4.525,4.525A4.525,4.525,0,0,0,568.131,250.835Zm0,7.288a2.765,2.765,0,1,1,2.765-2.765A2.765,2.765,0,0,1,568.131,258.123Z" transform="translate(-559.383 -246.612)"/><path class="c" d="M576.071,249.336a1.084,1.084,0,1,0,1.084,1.084A1.083,1.083,0,0,0,576.071,249.336Z" transform="translate(-562.789 -246.163)"/></g></svg>